<svg xmlns="http://www.w3.org/2000/svg" width="500" height="500" style="width:100%;height:100%;transform:translate3d(0,0,0);content-visibility:visible" viewBox="0 0 500 500"><defs><clipPath id="c"><path d="M0 0h500v500H0z"/></clipPath><clipPath id="b"><path d="M0 0h500v500H0z"/></clipPath><filter id="e" width="300%" height="300%" x="-100%" y="-100%"><feGaussianBlur result="filter_result_0" stdDeviation="52.5 52.5"/></filter><mask id="d" mask-type="alpha"><use xmlns:ns1="http://www.w3.org/1999/xlink" ns1:href="#a"/></mask><g id="a" clip-path="url(#b)" style="display:block"><path fill-opacity="0" stroke="#121331" stroke-linecap="round" stroke-linejoin="round" stroke-width="16.8" d="M160.119 0c0 88.431-71.688 160.119-160.119 160.119S-160.119 88.431-160.119 0-88.431-160.119 0-160.119 160.119-88.431 160.119 0z" style="display:block" transform="translate(250 250)"/><path fill="red" d="M345.444 283.358H154.556c-6.242 0-11.302-5.06-11.302-11.302v-44.112c0-6.242 5.06-11.302 11.302-11.302h190.888c6.242 0 11.302 5.06 11.302 11.302v44.112c0 6.242-5.06 11.302-11.302 11.302z" style="display:block"/><path fill-opacity="0" stroke="#08A88A" stroke-linecap="round" stroke-linejoin="round" stroke-width="8.4" d="M95.444 33.358H-95.444c-6.242 0-11.302-5.06-11.302-11.302v-44.112c0-6.242 5.06-11.302 11.302-11.302H95.444c6.242 0 11.302 5.06 11.302 11.302v44.112c0 6.242-5.06 11.302-11.302 11.302z" style="display:block" transform="translate(250 250)"/></g></defs><g clip-path="url(#c)"><g mask="url(#d)" style="display:block"><g filter="url(#e)" transform="rotate(-94 262.075 8.435) scale(2.4)"><path fill="#66A0ED" d="M0-250c137.975 0 250 112.025 250 250S137.975 250 0 250-250 137.975-250 0-137.975-250 0-250z" class="design"/><path fill="#66ED78" d="M113.242-295.384c97.478 0 176.5 79.022 176.5 176.5s-79.022 176.5-176.5 176.5c-43.948 0-74.396-34.057-105.29-60.631-37.631-32.369-71.21-62.338-71.21-115.869 0-97.478 79.022-176.5 176.5-176.5z" class="design"/></g></g><path style="display:none"/></g></svg>